Coordinates
version=1
nRows=14
nColumns=40
inDegrees=yes

Units are S.I. units (second, meters, Newtons, ...)
Angles are in degrees.

endheader
time	pelvis_tilt	pelvis_list	pelvis_rotation	pelvis_tx	pelvis_ty	pelvis_tz	hip_flexion_r	hip_adduction_r	hip_rotation_r	knee_angle_r	knee_angle_r_beta	ankle_angle_r	subtalar_angle_r	mtp_angle_r	hip_flexion_l	hip_adduction_l	hip_rotation_l	knee_angle_l	knee_angle_l_beta	ankle_angle_l	subtalar_angle_l	mtp_angle_l	lumbar_extension	lumbar_bending	lumbar_rotation	arm_flex_r	arm_add_r	arm_rot_r	elbow_flex_r	pro_sup_r	wrist_flex_r	wrist_dev_r	arm_flex_l	arm_add_l	arm_rot_l	elbow_flex_l	pro_sup_l	wrist_flex_l	wrist_dev_l
     21.47342857	     -4.69757949	     -4.17583780	      4.63269013	      0.80521171	      0.92848136	      0.50180385	     10.76029984	      3.18813824	    -14.37060885	     17.30631612	     17.30631612	     13.23415555	     -1.12930359	     -2.79426039	     34.10789502	     -8.90500437	      2.37475529	     45.05242757	     45.05242757	      7.82399000	    -17.20424583	      7.84688678	     -9.82793639	      4.78926319	      2.41579319	     24.30462368	    -18.85378959	     -4.56706242	     76.01238140	     44.93269853	      0.00000000	      0.00000000	     -7.47823171	     -7.28112495	     -3.35674295	     26.67509438	     45.27202146	      0.00000000	      0.00000000
     21.48685714	     -4.83145439	     -4.03301560	      5.00974882	      0.80437438	      0.92847747	      0.50134632	     10.24096971	      3.07815306	    -14.56096488	     16.88129682	     16.88129682	     13.46516477	     -1.13661842	     -2.82649973	     34.15355097	     -8.29673700	      2.38435789	     40.87884085	     40.87884085	      8.28433482	    -16.22948440	      8.09149888	     -9.74573499	      4.69506600	      2.40470171	     26.11551167	    -18.80008041	     -4.76640418	     77.25730000	     44.91161363	      0.00000000	      0.00000000	     -8.07113379	     -7.06460042	     -3.13013354	     26.45149110	     45.23058913	      0.00000000	      0.00000000
     21.50028571	     -4.96980275	     -3.93369255	      5.39013092	      0.80359217	      0.92833115	      0.50076052	      9.71980636	      3.00241694	    -14.80702375	     16.45656582	     16.45656582	     13.70142026	     -1.04473843	     -2.91307620	     34.11760448	     -7.71224874	      2.48652266	     36.71491821	     36.71491821	      8.67034822	    -14.87291634	      8.15382002	     -9.65594257	      4.68087066	      2.39766132	     27.86922228	    -18.76239723	     -4.92602109	     78.64600314	     44.88462508	      0.00000000	      0.00000000	     -8.63218824	     -6.85671961	     -2.91565755	     26.33436002	     45.19113117	      0.00000000	      0.00000000
     21.51371429	     -5.08914438	     -3.87211827	      5.76459833	      0.80289011	      0.92805646	      0.50006863	      9.17112176	      2.96263402	    -15.10554184	     16.02644809	     16.02644809	     13.95658089	     -0.89995579	     -3.04858907	     34.01294996	     -7.17707051	      2.60251614	     32.68798238	     32.68798238	      9.00309005	    -13.20097480	      8.11727425	     -9.58394278	      4.71014720	      2.40574538	     29.54358637	    -18.72780946	     -5.05346872	     80.08630101	     44.85557784	      0.00000000	      0.00000000	     -9.13267056	     -6.65445855	     -2.69541775	     26.30821817	     45.15215450	      0.00000000	      0.00000000
     21.52714286	     -5.17974714	     -3.85441682	      6.11116884	      0.80232677	      0.92765911	      0.49934095	      8.58066816	      2.96406620	    -15.47459731	     15.58401932	     15.58401932	     14.13569018	     -0.58817716	     -3.45975042	     33.83478901	     -6.73932261	      2.64064428	     28.87284758	     28.87284758	      9.03443946	    -11.32917592	      7.35844361	     -9.56763136	      4.77990421	      2.59191681	     30.93246116	    -18.85749622	     -5.16431553	     81.94692146	     44.83454875	      0.00000000	      0.00000000	     -9.72893155	     -6.60109985	     -1.99108487	     26.83473938	     45.05436856	      0.00000000	      0.00000000
     21.54057143	     -5.29549619	     -3.80699277	      6.42496200	      0.80183601	      0.92718075	      0.49852586	      8.06036438	      2.95362973	    -15.60429812	     15.23301769	     15.23301769	     14.43489501	     -0.62208132	     -3.54423599	     33.69214588	     -6.26712553	      2.70074299	     25.47686773	     25.47686773	      9.30319608	     -9.55391539	      7.75785361	     -9.45151347	      4.80011181	      2.68953597	     32.50049411	    -18.79468210	     -5.27845013	     82.84695925	     44.82052707	      0.00000000	      0.00000000	    -10.01912839	     -6.42484474	     -1.84369165	     26.76960855	     45.03163067	      0.00000000	      0.00000000
     21.55400000	     -5.48056444	     -3.97014885	      6.73751928	      0.80130712	      0.92631150	      0.49769168	      7.69771520	      3.14126684	    -15.82908553	     14.98819313	     14.98819313	     14.72711386	     -0.64195791	     -3.64821307	     33.85139919	     -5.99915931	      2.82503539	     22.80452870	     22.80452870	      9.46581332	     -8.08576388	      8.13998909	     -9.24936096	      5.06607673	      2.88606044	     34.09752047	    -18.90349491	     -5.42272454	     83.61437764	     44.80967103	      0.00000000	      0.00000000	    -10.21873401	     -6.23062382	     -1.76424102	     26.77890527	     45.01811469	      0.00000000	      0.00000000
     21.56742857	     -5.34759476	     -3.88907118	      6.97900068	      0.80137771	      0.92611641	      0.49684354	      6.69530086	      3.16360206	    -16.04371963	     14.30593862	     14.30593862	     14.96277231	     -0.22395611	     -3.78424781	     33.50021874	     -5.68991002	      2.33943051	     20.49757723	     20.49757723	      9.77346078	     -6.30923577	      8.69404120	     -9.42041853	      5.02910480	      2.74584621	     35.48485372	    -18.42741746	     -5.24242095	     84.83042255	     44.78374420	      0.00000000	      0.00000000	    -10.69442769	     -6.17475802	     -1.53201910	     27.13621686	     44.98636382	      0.00000000	      0.00000000
     21.58085714	     -5.39711165	     -3.89816576	      7.17376532	      0.80136761	      0.92544097	      0.49595152	      6.10377308	      3.22146208	    -16.12682411	     14.00275713	     14.00275713	     15.27356657	     -0.18207062	     -3.87277118	     33.45514444	     -5.41736484	      1.97502023	     18.82697244	     18.82697244	      9.75285922	     -5.42938104	      9.09990685	     -9.32438757	      5.08103993	      2.92885742	     36.74962693	    -18.35212438	     -5.23570198	     85.43443278	     44.77522436	      0.00000000	      0.00000000	    -10.85509402	     -6.10761123	     -1.44073891	     27.33845437	     44.97522562	      0.00000000	      0.00000000
     21.59428571	     -5.39638432	     -3.95472439	      7.33474186	      0.80160118	      0.92477892	      0.49505055	      5.41144522	      3.34934612	    -16.20897593	     13.62706813	     13.62706813	     15.56494782	     -0.04637250	     -3.91714143	     33.42105373	     -5.24445438	      1.50908649	     17.79561070	     17.79561070	      9.61700087	     -4.91819323	      9.36316574	     -9.25631757	      5.18287417	      3.07007079	     37.92419429	    -18.18553734	     -5.18635191	     86.00390412	     44.76552454	      0.00000000	      0.00000000	    -10.99326890	     -6.04073403	     -1.36681718	     27.59346636	     44.96637632	      0.00000000	      0.00000000
     21.60771429	     -5.37602422	     -4.02672205	      7.44951519	      0.80205248	      0.92406601	      0.49414544	      4.63561121	      3.51074210	    -16.29221456	     13.14984012	     13.14984012	     15.85250382	      0.20720308	     -3.91412805	     33.39753521	     -5.13882738	      0.94372392	     17.34227955	     17.34227955	      9.33496670	     -4.76904151	      9.45231146	     -9.20833699	      5.28090275	      3.16701462	     38.99939927	    -17.95340056	     -5.06632922	     86.49686127	     44.75721084	      0.00000000	      0.00000000	    -11.15775318	     -6.04388879	     -1.30173023	     27.99189994	     44.95985387	      0.00000000	      0.00000000
     21.62114286	     -5.36957882	     -4.14433534	      7.52883449	      0.80273264	      0.92321125	      0.49323404	      3.86664974	      3.71385941	    -16.37834962	     12.67784684	     12.67784684	     16.14703354	      0.54298227	     -3.85017917	     33.39507108	     -5.11677593	      0.35329408	     17.36588356	     17.36588356	      8.83199799	     -4.95018424	      9.16840744	     -9.10523372	      5.39149957	      3.24001463	     39.92675797	    -17.69467898	     -4.85466120	     86.79438938	     44.75618250	      0.00000000	      0.00000000	    -11.40166882	     -6.07822694	     -1.22745846	     28.68961529	     44.95502862	      0.00000000	      0.00000000
     21.63457143	     -5.33921063	     -4.28237793	      7.55795296	      0.80365422	      0.92226241	      0.49232040	      3.09621372	      3.93366607	    -16.40459123	     12.28211247	     12.28211247	     16.49624677	      0.86578907	     -3.75532237	     33.32198946	     -5.15901345	     -0.14148078	     17.73429700	     17.73429700	      8.13056380	     -5.39589185	      8.66984620	     -8.96915215	      5.51358339	      3.36737317	     40.72010174	    -17.45221680	     -4.66855401	     86.95098005	     44.75996205	      0.00000000	      0.00000000	    -11.56345723	     -6.14713176	     -1.17335939	     29.36626791	     44.95592472	      0.00000000	      0.00000000
     21.64800000	     -5.44191430	     -4.36096325	      7.58158680	      0.80470395	      0.92114452	      0.49130732	      2.61914957	      4.02164001	    -16.36608181	     12.21668757	     12.21668757	     16.87911795	      0.89173203	     -3.84247490	     33.18341255	     -5.14524724	     -0.68162342	     18.08075855	     18.08075855	      7.44556018	     -5.68269829	      8.83176384	     -8.67001789	      5.55324681	      3.55894639	     41.02176728	    -17.33894264	     -4.62678949	     87.04030103	     44.75778214	      0.00000000	      0.00000000	    -11.46583377	     -6.21264701	     -1.18211661	     29.46816858	     44.95977440	      0.00000000	      0.00000000
